<?xml version="1.0" encoding="UTF-8"?>
<svg width="57px" height="27px" viewBox="0 0 57 27" version="1.1" xmlns="http://www.w3.org/2000/svg" xmlns:xlink="http://www.w3.org/1999/xlink">
    <!-- Generator: Sketch 52.5 (67469) - http://www.bohemiancoding.com/sketch -->
    <title>楼兰</title>
    <desc>Created with Sketch.</desc>
    <g id="Page-1" stroke="none" stroke-width="1" fill="none" fill-rule="evenodd">
        <g id="logo" transform="translate(-22.000000, -37.000000)">
            <g id="楼兰" transform="translate(22.000000, 37.000000)">
                <g id="兰" transform="translate(45.500000, 13.500000) scale(-1, 1) rotate(-180.000000) translate(-45.500000, -13.500000) translate(34.000000, 0.000000)">
                    <path d="M4.74045802,26.9884583 C4.50245971,26.9115133 4.38931298,26.7768595 4.30932994,26.4710031 C4.27811705,26.3517384 4.26641221,26.2228555 4.25275657,25.8131234 C4.23324852,25.2379595 4.21374046,25.1148475 4.1259542,24.9878883 C4.03816794,24.8628527 3.9230704,24.799373 3.70458015,24.753206 C3.54851569,24.7205044 3.40025445,24.7128099 2.68235793,24.6974209 C1.57820187,24.6743374 1.35581001,24.6647193 1.05928753,24.6204759 C0.316030534,24.5127529 0.00195080577,24.2530636 0,23.7509974 C0,23.4605301 0.161916879,23.2450841 0.509160305,23.0758051 C0.92663274,22.8719008 1.68744699,22.7545597 2.59262087,22.7545597 C3.4841391,22.7545597 4.14156064,22.5391137 4.28396947,22.204403 C4.37175573,21.9966515 4.21374046,21.7619692 3.86259542,21.5830721 C3.64605598,21.4715019 3.50559796,21.4272585 3.00033927,21.311841 C2.32536047,21.157951 1.92349449,21.0136791 1.74011874,20.8597891 C1.66988974,20.8001567 1.66208651,20.7809205 1.63087362,20.6289541 C1.53723494,20.1672841 1.47285835,18.7187945 1.4201866,16.0218723 C1.39092451,14.4117982 1.39092451,8.75249359 1.4201866,7.00968937 C1.49041561,2.99316044 1.57234945,1.10031348 1.70305344,0.55785124 C1.74402036,0.382801368 1.74792197,0.375106868 1.85131467,0.284696495 C2.08150975,0.0827158735 2.39168787,-0.0134653748 2.77014419,0.00192362496 C2.96327396,0.00961812482 3.01399491,0.0192362496 3.11348601,0.0634796238 C3.17591179,0.0923339983 3.25004241,0.134653748 3.27345208,0.157737247 C3.3826972,0.257765745 3.47243427,0.53092049 3.52510602,0.931034483 C3.54851569,1.1099316 3.55631891,1.43502422 3.56412214,2.39298946 C3.57387617,3.57024793 3.56607294,4.1300228 3.50169635,6.77885437 C3.44122137,9.31226845 3.43146735,9.95860644 3.45292621,10.6068681 C3.46268024,10.9569678 3.4821883,11.3378455 3.49194232,11.453263 C3.59923664,12.5843545 3.83918575,12.945996 4.58049194,13.0960388 C4.68388465,13.1171986 4.98040712,13.161442 5.23791349,13.1941436 C6.46692112,13.3499573 7.93002545,13.6654317 8.9307888,13.992448 C9.99787956,14.3406241 10.1851569,14.5387575 10.3178117,15.454403 C10.4270568,16.2142348 10.4992366,18.7707324 10.4348601,19.6075093 C10.3275657,21.0136791 9.97251908,21.6100028 9.10245971,21.8427615 C8.7610687,21.9331718 8.25581001,21.9851097 7.71543681,21.9851097 C7.18286684,21.9851097 6.7322307,22.0466657 6.49813401,22.1486178 C6.07285835,22.3371331 6.24062765,22.6218296 6.90585242,22.8391992 C7.31552163,22.9719293 7.7115352,23.0315617 8.68498728,23.1008122 C10.0778626,23.2008407 10.635793,23.3335708 10.7372349,23.5855657 C10.7782019,23.6836706 10.7508906,23.7913936 10.6494487,23.9472072 C10.4621713,24.2357509 10.1558948,24.4127244 9.62527566,24.5416073 C9.18244275,24.6493303 8.9971162,24.6685665 8.03731976,24.6974209 C7.07167091,24.7281989 6.82586938,24.7897549 6.67955895,25.0340553 C6.63664122,25.1090767 6.62493639,25.1610145 6.60152672,25.414933 C6.55860899,25.8881448 6.44741306,26.1632231 6.17625106,26.4710031 C5.99287532,26.676831 5.65343511,26.8845825 5.37446989,26.9576803 C5.2418151,26.9923055 4.81458863,27.0134654 4.74045802,26.9884583 Z M6.92536047,20.0614848 C7.42476675,20.0172414 7.82663274,19.8421915 7.9807464,19.603662 C8.01391009,19.5536478 8.06658185,19.4266885 8.09974555,19.3208891 C8.24800679,18.8592192 8.1524173,18.7072528 7.63155216,18.5783699 C7.28235793,18.4898832 6.36938083,18.3533058 5.32569975,18.2321174 C4.85165394,18.1763323 4.35224767,18.172485 4.18447837,18.2224993 C3.9581849,18.2898262 3.86454623,18.4090909 3.86259542,18.6380023 C3.86259542,18.803434 3.92111959,18.9650185 4.04011874,19.1246794 C4.3620017,19.5555714 5.23206107,19.9383728 6.12553011,20.0403249 C6.51178965,20.0845683 6.62298558,20.0864919 6.92536047,20.0614848 Z M6.70101781,16.7913223 C7.4403732,16.7374608 7.88320611,16.5489456 7.95928753,16.2584782 C7.99245123,16.1238245 7.96904156,16.0372613 7.86955047,15.9276147 C7.63350297,15.669849 7.02290076,15.5486606 5.60856658,15.4813337 C5.00381679,15.4524793 4.0596268,15.4678683 3.88015267,15.5082645 C3.64020356,15.5640496 3.53095844,15.6486891 3.53095844,15.7833428 C3.53095844,15.8679823 3.64800679,16.0584212 3.75725191,16.1507552 C4.08498728,16.4296808 4.63901612,16.6278142 5.39202714,16.7336136 C5.89923664,16.8067113 6.26598813,16.8221003 6.70101781,16.7913223 Z" id="形状" fill="#3C3C3C" fill-rule="nonzero"></path>
                    <path d="M16.6052587,26.1670704 C16.1916879,26.0785836 15.9068702,25.8727558 15.637659,25.4687945 C15.235793,24.8666999 14.8865988,24.7243517 13.7336726,24.6878028 C13.0918575,24.6685665 12.7543681,24.6204759 12.373961,24.4954403 C11.8257846,24.3146195 11.509754,24.0433884 11.509754,23.7509974 C11.509754,23.4990026 11.8550466,23.2258478 12.3193384,23.1085067 C12.7270568,23.0084782 13.4625106,22.9738529 13.9229008,23.0354089 C14.2408821,23.0777287 14.6603053,23.0796523 14.8417303,23.0373326 C15.1441052,22.9680821 15.426972,22.8180393 15.6825276,22.5872043 C15.8756573,22.4160017 16.4023749,21.8543032 16.4882103,21.727344 C16.6832909,21.4445711 16.6013571,21.3753206 15.9185751,21.234896 C15.3723494,21.1233257 15.0368109,21.0117555 14.6115352,20.8020804 C13.8156064,20.4077372 13.2888889,19.9306783 13.0918575,19.4266885 C12.9279898,19.0111855 12.9182358,18.541821 13.0430874,17.2049017 C13.1913486,15.608293 13.3083969,14.9215588 13.4937235,14.5753064 C13.5854114,14.4021801 13.7609839,14.238672 13.9580153,14.1424907 C14.62324,13.8135509 16.2931298,13.5288544 17.8108567,13.4826874 C18.6887193,13.4576803 18.9189143,13.4461385 19.2056828,13.4153605 C19.6738762,13.3653463 19.9177269,13.3037903 19.9586938,13.2287689 C20.017218,13.1191223 20.1401187,10.8050014 20.2688719,7.30785124 C20.4502969,2.42761471 20.5205259,1.3253776 20.7,0.661726988 C20.7526718,0.463593616 20.8014419,0.361641493 20.891179,0.269307495 C20.9906701,0.163508122 21.0882103,0.132730123 21.3301103,0.132730123 C21.845123,0.132730123 22.1299406,0.363565118 22.3289228,0.944499858 C22.447922,1.29267598 22.5044953,1.62353947 22.5727735,2.35451696 C22.607888,2.74116557 22.6156913,2.98161869 22.6234945,4.26467655 C22.6391009,6.38643488 22.607888,7.44058136 22.3757422,12.915218 C22.2079729,16.8374893 22.0772689,18.4398689 21.8373198,19.5036335 C21.6305344,20.4154317 21.3437659,20.8674836 20.8092451,21.127173 C20.5536896,21.2522086 20.3254453,21.3176119 19.7694656,21.4272585 C18.942324,21.5907666 18.6126378,21.7542747 18.4507209,22.0774437 C18.390246,22.1986321 18.3863444,22.2159447 18.3863444,22.4179253 C18.3863444,22.5468082 18.3960984,22.6583785 18.4136556,22.7026218 C18.4721798,22.8680536 18.6497031,22.9911656 18.9130619,23.0488743 C19.1569126,23.1027358 19.4202714,23.1200484 20.2649703,23.1392847 C21.3359627,23.1642918 21.6422392,23.1873753 22.1416455,23.2854802 C22.789313,23.4124394 23,23.5605586 23,23.8894984 C23,24.0279994 22.9492791,24.1395697 22.8244275,24.2799943 C22.5083969,24.6320177 21.8763359,24.8840125 21.0979644,24.968652 C20.8658185,24.9936592 20.3137405,24.9821174 20.0932994,24.9474922 C19.8592027,24.9109433 19.3734521,24.891707 19.1998304,24.9109433 C18.9871925,24.9340268 18.7726039,25.0052009 18.6321459,25.0994585 C18.52095,25.1744799 18.3473282,25.3668424 18.2068702,25.5726703 C18.0176421,25.8496723 17.6879559,26.0728128 17.3446141,26.1574523 C17.1495335,26.2055429 16.8022901,26.2093901 16.6052587,26.1670704 Z M18.2517388,19.5247934 C18.7394402,19.434383 19.0808312,19.2978056 19.2798134,19.1092904 C19.424173,18.9746366 19.4729432,18.8669137 19.484648,18.6668567 C19.4905004,18.5322029 19.4865988,18.5014249 19.4456319,18.4264035 C19.3656489,18.2782844 19.1647159,18.203263 18.7179813,18.1532488 C18.4,18.1186235 16.5057676,18.1186235 16.1351145,18.1532488 C15.1870229,18.2436592 14.7422392,18.449487 14.8924512,18.7303363 C15.0504665,19.0265745 15.9614928,19.4209176 16.7379135,19.5305643 C17.0558948,19.5767313 17.0695505,19.5767313 17.5670059,19.5709604 C17.937659,19.5651895 18.0800679,19.5555714 18.2517388,19.5247934 Z M19.0359627,16.5143203 C19.3695505,16.4758478 19.5509754,16.4335281 19.6836302,16.3681248 C19.8631043,16.2796381 19.9372349,16.1661442 19.9372349,15.9833998 C19.9372349,15.6583072 19.7109415,15.531348 18.9813401,15.4505557 C18.5385072,15.4024651 16.6364716,15.4024651 16.1916879,15.4524793 C15.6864292,15.5082645 15.477693,15.5717441 15.3430874,15.7083215 C15.1987277,15.8564406 15.1987277,16.1199772 15.3450382,16.2623254 C15.5186599,16.4335281 15.7761662,16.4912368 16.6111111,16.5489456 C16.6657337,16.5527928 17.174894,16.5527928 17.7425785,16.5508692 C18.5424088,16.5470219 18.8350297,16.5393274 19.0359627,16.5143203 Z" id="形状" fill="#3D3D3D" fill-rule="nonzero"></path>
                    <path d="M11.5195081,13.8000855 C11.107888,13.7115987 10.756743,13.4480621 10.5031383,13.0421773 C10.294402,12.7036193 10.1110263,12.5651183 9.73256997,12.4554716 C9.39508058,12.3592904 8.69474131,12.3111998 7.62765055,12.3092761 C6.33231552,12.3073525 5.19304495,12.1784696 4.90042409,12.0014962 C4.77752332,11.9264748 4.74240882,11.7283414 4.82434266,11.5821459 C4.97650551,11.3051439 5.55004241,11.1243232 6.51569126,11.0473782 C6.98388465,11.0108293 7.643257,11.0185238 8.35920271,11.0704617 C8.92688719,11.1127814 10.2202714,11.1204759 10.4270568,11.0820034 C10.7177269,11.0300655 10.8620865,10.9569678 10.9011026,10.8492448 C10.9323155,10.7626817 10.8679389,10.6799658 10.7099237,10.6030208 C10.4309584,10.4645198 10.0681086,10.4106583 9.25657337,10.3856512 C8.20508906,10.3529496 7.90076336,10.3144771 7.62765055,10.1817469 C7.16335878,9.95475919 6.9663274,9.45654032 6.88634436,8.31775435 C6.85513147,7.85608435 6.82196777,6.25755201 6.83562341,5.80742377 C6.85708227,5.03797378 6.93706531,4.76289541 7.19067006,4.57053292 C7.31162002,4.48012254 7.44817642,4.42818467 7.69592875,4.38201767 C7.95733673,4.33200342 8.13681086,4.3146908 9.11026293,4.25890567 C10.5070399,4.1761898 10.7606446,4.1300228 11.0103478,3.90303505 C11.2444444,3.68951268 11.3068702,3.40481619 11.3927057,2.16215446 C11.4941476,0.709817612 11.5994911,0.325092619 11.9350297,0.178897122 C11.9837998,0.157737247 12.0852417,0.144271872 12.243257,0.136577372 C12.6412214,0.121188373 12.7992366,0.196209746 12.9455471,0.467440866 C13.0957591,0.744442861 13.1679389,1.1407096 13.2752332,2.26795383 C13.3122986,2.65460245 13.3610687,3.09703619 13.3825276,3.25284981 C13.4605598,3.81070105 13.5854114,4.0992448 13.8234097,4.26660017 C14.0360475,4.41664292 14.3462256,4.49551154 15.226039,4.62631804 C15.7605598,4.70518666 16.6618321,4.85715304 17.1085666,4.94371616 C17.5201866,5.02450841 17.8284139,5.10914791 17.9005937,5.16493303 C18.1034775,5.31497578 18.259542,5.74586777 18.329771,6.34603876 C18.3707379,6.69998575 18.3590331,7.52137361 18.3102629,7.88493873 C18.2322307,8.44278997 18.1034775,8.95255058 17.9454623,9.31034483 C17.6411366,10.0047734 17.446056,10.1836706 16.8881255,10.2913936 C16.6111111,10.3452551 16.2599661,10.3625677 15.235793,10.3760331 C13.8117048,10.3933457 13.3220526,10.4433599 13.0860051,10.5895554 C12.9884648,10.6511114 12.9533503,10.7068966 12.9533503,10.7992306 C12.9533503,10.8627102 12.9650551,10.8896409 13.0177269,10.9358079 C13.1308736,11.0416073 13.2011026,11.0781562 13.4351993,11.1531775 C13.8994911,11.3032203 14.4691264,11.3897834 15.4211196,11.453263 C16.5350297,11.5263608 17.0695505,11.5975349 17.6099237,11.7437304 C18.068363,11.8668424 18.2946565,11.9957253 18.4526718,12.222713 C18.7199321,12.6055144 18.2907549,12.6940011 16.1741306,12.6940011 C14.6017812,12.6940011 13.7804919,12.7517099 13.2732824,12.8959818 C12.9611535,12.9863921 12.8206955,13.0921915 12.6997455,13.3287974 C12.6587786,13.407666 12.5924512,13.5096181 12.5534351,13.5538615 C12.4715013,13.6481191 12.2900763,13.7539185 12.1359627,13.7981619 C12.0052587,13.8366344 11.6872774,13.8366344 11.5195081,13.8000855 Z M10.6826124,9.10451696 C10.7840543,9.05642633 10.8055131,9.03526646 10.8562341,8.93523796 C10.906955,8.83713309 10.9147583,8.80058421 10.9147583,8.66593046 C10.9147583,8.53127672 10.906955,8.49857509 10.8620865,8.42163009 C10.7703986,8.2677401 10.5675148,8.16386435 10.2417303,8.1061556 C9.99397795,8.06191223 9.27608142,8.04652323 8.91128075,8.07730123 C8.3221374,8.12539185 8.1192536,8.23888572 8.29482612,8.41778284 C8.4235793,8.55051297 8.71815098,8.69478484 9.27608142,8.89868909 C10.0368957,9.17761471 10.4212044,9.23339983 10.6826124,9.10451696 Z M14.6603053,9.12760046 C15.2318914,9.05834996 15.7430025,8.92754346 16.0590331,8.76595896 C16.3067854,8.64092334 16.3789652,8.53704759 16.3204411,8.39854659 C16.2599661,8.25427472 16.0648855,8.16578797 15.6630195,8.10423197 C15.4757422,8.07345398 15.3196777,8.06960673 14.6700594,8.06960673 C13.9775233,8.06960673 13.8741306,8.07345398 13.6439355,8.11192647 C13.1464801,8.1907951 12.9748092,8.28889997 12.9026293,8.53512397 C12.8753181,8.62553434 12.8733673,8.66593046 12.8909245,8.76595896 C12.935793,9.02564833 13.0996607,9.12375321 13.538592,9.15260758 C13.7434266,9.16607296 14.4749788,9.14876033 14.6603053,9.12760046 Z M10.6592027,6.8346395 C10.9167091,6.79424337 11.1605598,6.68459675 11.2307888,6.57879738 C11.3244275,6.44029638 11.3380831,6.24793388 11.2620017,6.10366201 C11.2132316,6.00940439 11.0942324,5.91899402 10.9557252,5.86705614 C10.6943172,5.77087489 10.153944,5.72086064 9.55894826,5.73624964 C8.52892282,5.76510402 8.17387617,5.91707039 8.17387617,6.32872613 C8.17387617,6.43644913 8.24995759,6.59803363 8.3221374,6.64804788 C8.45089059,6.73653463 8.59915182,6.79424337 8.79618321,6.83079225 C9.20390161,6.90389 10.2222222,6.90581362 10.6592027,6.8346395 Z M15.7956743,6.83079225 C16.22095,6.74807638 16.4043257,6.59611 16.4062765,6.32487888 C16.4062765,6.11520376 16.3418999,6.01325164 16.1487701,5.91322314 C15.6805768,5.67084639 14.0340967,5.66699915 13.5424936,5.90745227 C13.3669211,5.99401539 13.2986429,6.08827301 13.2888889,6.25947563 C13.2771841,6.43644913 13.2947413,6.503776 13.3825276,6.59995725 C13.5073791,6.74038188 13.7356234,6.82117412 14.1335878,6.8654175 C14.2194232,6.873112 14.5842239,6.87888287 14.9431722,6.87503562 C15.497201,6.86926475 15.6259542,6.86349387 15.7956743,6.83079225 Z" id="形状" fill="#3F3F3F" fill-rule="nonzero"></path>
                    <path d="M14.6154368,3.32594756 C14.5178965,3.26631519 14.4710772,3.14320319 14.4593723,2.92198632 C14.4515691,2.75655457 14.4554707,2.72962382 14.5022901,2.6276717 C14.5686175,2.47955258 14.7851569,2.25833571 15.0016964,2.11791109 C15.4191688,1.84667997 16.2014419,1.55236535 17.0305344,1.3561556 C17.9844784,1.12916785 18.4058524,1.0868481 18.6438507,1.19072385 C18.7745547,1.24650898 18.7999152,1.3407666 18.7257846,1.49273297 C18.6028838,1.74088059 18.1034775,2.10829296 17.4850721,2.40260758 C16.9817642,2.6430607 15.8951654,3.08934169 15.4698897,3.23361357 C15.0563189,3.37211456 14.7480916,3.40481619 14.6154368,3.32594756 Z" id="路径" fill="#3D3D3D"></path>
                    <path d="M9.74427481,2.98546594 C9.41458863,2.93352807 8.98346056,2.7815617 8.47625106,2.53918495 C7.29406277,1.97171559 6.23672604,1.21573098 6.02603902,0.788686235 C6.00653096,0.746366486 5.98897371,0.673268738 5.98897371,0.625178113 C5.98897371,0.55400399 5.99872774,0.532844115 6.04749788,0.492447991 C6.14503817,0.409732117 6.2250212,0.396266743 6.50398643,0.407808492 C6.80050891,0.421273867 7.1692112,0.486677116 7.72909245,0.630948988 C8.46259542,0.81754061 9.06149279,1.05991736 9.59796438,1.38500997 C9.75012723,1.47734397 9.85937235,1.56583072 10.0388465,1.73895697 C10.2475827,1.94093759 10.2865988,1.99095184 10.3568278,2.13330009 C10.4543681,2.32950983 10.485581,2.49301795 10.4563189,2.64883158 C10.4134012,2.87581932 10.2670908,2.97969507 9.97251908,2.98931319 C9.87888041,2.99316044 9.77743851,2.99123682 9.74427481,2.98546594 Z" id="路径" fill="#3D3D3D"></path>
                </g>
                <g id="楼" transform="translate(14.000000, 13.500000) scale(-1, 1) rotate(-180.000000) translate(-14.000000, -13.500000) " fill="#3D3D3D">
                    <path d="M4.8692316,26.9563555 C4.74651911,26.8817502 4.67780012,26.7474606 4.63116937,26.4895393 C4.58208438,26.2081706 4.59680987,25.2255118 4.66798312,23.9955896 C4.76615311,22.3265618 4.77351586,22.096351 4.76124461,21.0966396 C4.74897336,20.1139808 4.72688511,19.8240858 4.64344062,19.5299276 C4.60171837,19.3764538 4.55999613,19.3423485 4.43728364,19.3615327 C3.86789768,19.4446644 2.82238727,19.8816384 2.58923354,20.1374281 C2.27999806,20.4699548 2.25790982,20.9836658 2.4787923,22.7912464 C2.56223679,23.4925365 2.58677929,24.532748 2.52542304,24.9015115 C2.37571381,25.7967755 1.99530509,26.0227231 1.37437989,25.5836174 C1.2025824,25.4621173 1.10932091,25.3470119 1.04305616,25.1679591 C0.912980925,24.8269062 0.85162468,24.4346953 0.814810933,23.729142 C0.748546189,22.4075618 0.954703172,20.514718 1.28357264,19.4553223 C1.45537013,18.907506 1.61489637,18.6346636 1.93394884,18.3554265 C2.18919082,18.1316105 2.37571381,18.0165051 2.69231203,17.8886103 C2.96964226,17.7756365 3.084992,17.7521891 3.44576672,17.7287417 C3.62492695,17.7159522 3.79917869,17.6903733 3.91943693,17.656268 C4.55017913,17.4814783 5.01648659,16.9805568 5.07784283,16.4092931 C5.09256833,16.2771351 5.09011408,16.2600825 5.04593759,16.2387667 C4.8888656,16.1662929 4.48391438,16.1343192 3.43104122,16.1087402 C2.49597205,16.0874244 2.29226931,16.0703718 1.92904034,15.9915033 C1.55599437,15.9083716 1.35720014,15.8145821 1.10932091,15.5992924 C0.868804429,15.3882659 0.748546189,15.2070815 0.60865395,14.8447127 C0.284692977,14.0027383 0.157071987,12.7706845 0.0809902434,9.69268166 C0.0147254988,7.05165291 0.0024542498,6.22459951 0,4.85399298 C0,3.35336002 0.0147254988,3.01230707 0.0957157422,2.5625435 C0.144800738,2.30249062 0.24787923,2.09785886 0.358320471,2.03817459 C0.515392458,1.95717452 0.888438427,2.01046404 1.08477841,2.14475364 C1.20994515,2.23214845 1.28602689,2.34512224 1.37928839,2.59451721 C1.58053687,3.1316756 1.68606961,4.12072915 1.83577885,6.90031066 C2.05175283,10.901288 2.18182807,12.2676314 2.45179555,13.3163692 C2.65058978,14.0858699 2.94755401,14.4269229 3.41631572,14.4247913 C3.6911917,14.4226597 3.80899569,14.3778965 3.95134218,14.2137648 C4.26057765,13.8641855 4.37347314,12.5660527 4.37592739,9.34097081 C4.37838164,7.48649541 4.41764964,4.06530804 4.44955489,3.20201777 C4.50845688,1.51380569 4.58944712,0.433094161 4.68025437,0.164514966 C4.72197661,0.0387516915 4.82260086,-0.0124062505 5.00421534,0.00251481592 C5.22755207,0.0195674633 5.58832679,0.170909708 5.80920927,0.339304601 C6.35405273,0.752831298 6.48412797,2.21296423 6.48658222,7.96610112 C6.48658222,10.2426295 6.51848747,12.3145262 6.56020971,12.9540005 C6.62156596,13.8684487 6.7320072,14.2627911 6.96025243,14.3821597 C7.05596817,14.4333176 7.14677542,14.4354492 7.3234814,14.390686 C7.50264164,14.3459228 7.73579537,14.1391595 7.88059611,13.9004224 C8.22419108,13.3248955 8.47452456,12.3038683 8.6095083,10.926867 C8.69540704,10.0230767 8.70767829,9.76941857 8.70767829,8.42439102 C8.70767829,7.05165291 8.69786129,6.8512843 8.59232855,5.40820402 C8.52851805,4.54065059 8.51379255,3.0421492 8.56778605,2.74585945 C8.61932529,2.46449077 8.68559004,2.30675379 8.79112278,2.21083265 C8.87456727,2.13409573 8.89420127,2.12556941 9.00709676,2.12556941 C9.14944325,2.12556941 9.31142374,2.18951684 9.53966897,2.33659592 C10.0403359,2.65846464 10.1753197,3.73064984 10.2096792,7.63570608 C10.2415844,11.3894201 10.1164177,13.4165535 9.7875482,14.522844 C9.62802196,15.0536077 9.44886173,15.3648185 9.1420805,15.6440556 C8.97273727,15.7953978 8.90156402,15.8444242 8.73712929,15.9126348 C8.42053106,16.0469244 8.06466484,16.1087402 7.60326588,16.1087402 C7.11241592,16.1087402 6.78354644,16.2089245 6.63629146,16.3986352 C6.52585022,16.5457143 6.50130772,16.6416354 6.50130772,16.9293989 C6.50130772,17.1638728 6.50867047,17.1958465 6.57002671,17.3130834 C6.65101696,17.4686888 6.7320072,17.5454258 6.88417069,17.6136363 C7.05351392,17.6882417 7.17131791,17.7074259 7.57872338,17.7287417 C8.13338383,17.7564523 8.47452456,17.8459787 8.85002478,18.0633999 C9.53230622,18.4577424 10.0599699,19.2208484 10.4968264,20.4379811 C10.9852221,21.8085876 11.1275686,23.0939309 10.8821436,23.9252474 C10.8109704,24.1597213 10.6416271,24.5412743 10.4821009,24.8162483 C10.2219504,25.2638803 10.0231562,25.4344067 9.82436195,25.3832488 C9.66238146,25.3406172 9.53476047,25.1317222 9.44395323,24.7544324 C9.34578324,24.3515636 9.30896949,23.952958 9.28442699,23.0044045 C9.25006749,21.6252716 9.1911655,21.1840344 8.98746276,20.7236129 C8.83775353,20.38256 8.50888405,20.0393754 8.04993934,19.7452173 C7.76279211,19.5619013 7.54190963,19.4766381 7.3480239,19.4766381 C7.09769042,19.4766381 6.96761518,19.5725592 6.83017719,19.8603226 C6.57493521,20.3996126 6.50867047,21.5080347 6.59947771,23.835721 C6.64365421,24.9654589 6.63383721,25.9331967 6.57493521,26.2337496 C6.51112472,26.5790657 6.38350373,26.7666448 6.1552585,26.8540396 C6.01291201,26.9094607 5.5392418,26.9798029 5.22264357,26.994724 C4.96740159,27.0053819 4.9477676,27.0032503 4.8692316,26.9563555 Z" id="路径"></path>
                    <path d="M18.3948636,26.9646607 C18.2792937,26.9242535 18.1971108,26.858326 18.1380417,26.7647514 C18.0815409,26.6711768 17.9659711,26.2607246 17.8195827,25.6354761 C17.6731942,25.008101 17.5935795,24.8783726 17.2699839,24.714617 C16.9874799,24.5742551 16.6638844,24.5104543 15.8394864,24.4338933 C14.8841091,24.3466987 14.5348315,24.2828979 14.1341894,24.1255224 C13.8208668,24.0043008 13.5666132,23.7873779 13.4022472,23.5087808 C13.1120385,23.0111341 13.0144462,22.3497318 12.9861958,20.6717691 C12.952809,18.710956 13.0786517,17.573174 13.4176565,16.7692831 C13.5691814,16.414125 13.7335474,16.1865686 13.9903692,15.9717724 C14.2369181,15.7697363 14.4064205,15.6804151 14.7454254,15.5847138 C14.9662921,15.5230397 15.0510433,15.5124062 15.4054575,15.4932659 C16.3711075,15.4422252 16.6279294,15.3996913 17.0337079,15.2316824 C17.3085072,15.1189675 17.5807384,14.9041713 17.6911717,14.7170221 C17.7553772,14.606434 17.7630819,14.5639 17.7656501,14.3980178 C17.7656501,14.2236288 17.7579454,14.1938551 17.6808989,14.0641266 C17.5396469,13.8259368 17.2982343,13.6898283 16.8436597,13.5920003 C16.4276083,13.5005524 15.9627608,13.4707786 14.6837881,13.4516384 C12.9784912,13.4239913 12.5239165,13.3708239 12.1823435,13.1581544 C12.082183,13.0964802 12.0025682,12.9624984 12,12.854037 C12,12.6902814 12.0719101,12.5584263 12.2414125,12.4180644 C12.6985554,12.0416393 13.6873194,11.8544901 15.081862,11.8863906 C15.4131621,11.8927707 15.8292135,11.9097842 16.0064205,11.9225444 C16.1836276,11.9353046 16.494382,11.945938 16.6998395,11.945938 C17.0285714,11.9480647 17.0902087,11.9438114 17.2211878,11.9012774 C17.5113965,11.8077028 17.6321027,11.6588342 17.7271268,11.2696489 C17.8478331,10.7826357 17.8195827,10.5274322 17.6269663,10.382817 C17.4805778,10.2743555 17.3187801,10.2403284 16.8256822,10.2190614 C15.9550562,10.1807809 15.2,9.97449144 14.6298555,9.61720662 C13.8696629,9.14295355 13.8362761,8.93241071 14.2626003,7.39055657 C14.5682183,6.29105506 14.9714286,5.30426841 15.4182986,4.58119199 C15.6134831,4.26218768 15.7393258,4.10481223 15.9653291,3.88150921 C16.1990369,3.65395281 16.3146067,3.52209769 16.3146067,3.48381718 C16.3146067,3.43702988 16.1836276,3.45191675 15.8728732,3.53273117 C15.5107544,3.62630577 15.2462279,3.64331933 14.9020867,3.59653203 C13.8645265,3.45617014 12.975923,2.86494883 12.975923,2.31838812 C12.975923,2.186533 13.070947,2.01852407 13.1916533,1.93558295 C13.3688604,1.81648801 13.4664526,1.79096766 13.8131621,1.78033419 C14.0699839,1.77182741 14.1752809,1.78033419 14.3910112,1.8186147 C14.7479936,1.88028887 15.1512039,2.0057639 15.5621188,2.18015292 C16.0295345,2.38006228 16.2144462,2.40770932 16.4070626,2.30137455 C16.5020867,2.24820717 16.517496,2.22906691 16.6741573,1.96748338 C16.8308186,1.71015324 16.9746388,1.593185 17.2982343,1.46770997 C17.4292135,1.41666928 17.5961477,1.36562859 17.670626,1.35286842 C17.9659711,1.30182773 18.3871589,1.33585486 18.5515249,1.42517606 C18.764687,1.54001761 18.7775281,1.80160114 18.6105939,2.45662331 C18.5258427,2.7841344 18.5155698,2.86707552 18.5130016,3.13716583 C18.5104334,3.4263964 18.5155698,3.45191675 18.5746388,3.54974473 C18.65939,3.68797993 18.7441413,3.73689393 18.9162119,3.7496541 C19.5017657,3.79006131 20.5393258,3.12440566 22.1829856,1.65911255 C23.3746388,0.597891563 23.7932584,0.274633867 24.2144462,0.100244847 C24.6125201,-0.0656373922 24.9695024,-0.0273568756 25.4369181,0.227846569 C25.7065811,0.37884194 25.8991974,0.544724179 25.9967897,0.716986503 C26.1842697,1.04237089 26.0532905,1.38051546 25.5704655,1.81648801 C25.3521669,2.01214398 24.9540931,2.28223429 24.4044944,2.60549199 C23.364366,3.21585356 22.8199037,3.63481255 22.5913323,3.99422407 C22.4346709,4.24304742 22.470626,4.3940428 22.717175,4.49612417 C22.8224719,4.53865808 22.8918138,4.54716486 23.2873194,4.56417842 C23.9833066,4.59182546 24.3197432,4.64286615 24.7486356,4.78535474 C25.2288925,4.9448569 25.729695,5.31277519 26.0969502,5.77426809 C26.4616372,6.23150759 26.7826645,6.8248556 26.9136437,7.2842218 C26.9983949,7.58195915 27.0215088,8.03069188 26.965008,8.27313515 C26.7313002,9.28331545 25.6834671,9.97023805 23.7495987,10.3785636 C23.3232745,10.4678848 22.8044944,10.5423191 22.0288925,10.6231335 C21.2686998,10.703948 20.9091493,10.7528619 20.5239165,10.8336764 C19.7791332,10.9910518 19.3579454,11.2037214 19.4221509,11.3908706 C19.4555377,11.4844452 19.4889246,11.5120922 19.6609952,11.5822731 C20.0873194,11.7609156 20.7756019,11.8247164 22.4783307,11.8459834 C24.6638844,11.869377 26.0301766,11.9863453 26.9727127,12.2309152 C27.6635634,12.4095576 28,12.6413674 28,12.9327247 C27.9974318,13.2474756 27.6764045,13.4431316 27.0035313,13.5388329 C26.5232745,13.6047604 26.1662921,13.6196473 24.4815409,13.643041 C22.0853933,13.6749414 21.1094703,13.7153486 20.2054575,13.8259368 C19.6378812,13.893991 19.494061,13.9365249 19.4093098,14.0577465 C19.1499197,14.4214115 19.7380417,14.8680175 20.89374,15.1848951 C21.5974318,15.3762977 22.1264848,15.4464786 23.1152488,15.471999 C24.1348315,15.499646 24.6022472,15.5634469 25.0080257,15.7250757 C25.7990369,16.0398266 26.153451,16.6416814 26.3024077,17.9283321 C26.3666132,18.4685127 26.3820225,18.9108654 26.3820225,20.1294618 C26.3794543,22.7793243 26.2869984,23.179143 25.5319422,23.7767444 C25.023435,24.1744364 24.3454254,24.4615403 23.5184591,24.6252958 C23.0484751,24.7167437 22.7556982,24.7443908 22.0288925,24.7656577 C21.6487961,24.7762912 21.2481541,24.7954315 21.1428571,24.8081916 C20.7447833,24.8549789 20.5033708,24.9570603 20.4006421,25.1250692 C20.341573,25.2186438 20.2953451,25.4121731 20.2953451,25.5610418 C20.2927769,25.9183266 19.9897271,26.3798195 19.5813804,26.6499098 C19.1345104,26.9433938 18.6773676,27.0667421 18.3948636,26.9646607 Z M20.6035313,23.3939392 C21.2866774,23.3173782 22.1495987,23.0281476 22.7479936,22.6772429 C23.1666132,22.4305462 23.5903692,22.0434877 23.8163724,21.6947096 C23.9987159,21.4139858 23.9781701,21.1736693 23.7573034,21.0375607 C23.5390048,20.9014522 23.1614767,20.8100043 22.6247191,20.763217 C22.1521669,20.7206831 20.3030498,20.7291899 20.0179775,20.7738505 C19.6301766,20.8355247 19.470947,20.9376061 19.375923,21.1906828 C19.3399679,21.2906375 19.3322632,21.3948456 19.3322632,21.8201846 C19.3348315,22.3454784 19.3605136,22.5921751 19.4504013,22.9154328 C19.5274478,23.1897765 19.5788122,23.2642108 19.74061,23.3301384 C19.9820225,23.4279663 20.1772071,23.4428532 20.6035313,23.3939392 Z M17.141573,23.1195955 C17.3855538,23.0834417 17.5319422,23.0175141 17.6423756,22.8984192 C17.8067416,22.7197768 17.870947,22.3667454 17.8478331,21.7776507 C17.8195827,21.1247553 17.7065811,20.9057056 17.3444623,20.784484 C17.2160514,20.7419501 17.1569823,20.7376967 16.7640449,20.7376967 C16.3890851,20.7376967 16.2812199,20.7462035 15.9935795,20.7972442 C15.2539326,20.9248459 14.8455859,21.0992349 14.694061,21.3438049 C14.6067416,21.4884202 14.5836276,21.6479223 14.6298555,21.8308181 C14.7865169,22.4539399 15.5492777,23.0175141 16.3916533,23.1344824 C16.5380417,23.1557493 16.9566613,23.1451159 17.141573,23.1195955 Z M23.8959872,19.4616795 C24.0064205,19.4446659 24.1451043,19.4085121 24.2041734,19.3808651 C24.4918138,19.2511366 24.4995185,19.0746209 24.2606742,18.3685581 C23.90626,17.3371108 23.3849117,16.8926315 22.3499197,16.7373827 C22.023756,16.6905954 21.1402889,16.6714552 20.7601926,16.7033556 C20.2414125,16.7480162 20.0410915,16.8288306 19.9280899,17.0415002 C19.8433387,17.2010023 19.8073836,17.4243053 19.8073836,17.8071105 C19.8073836,18.3813182 19.8715891,18.7705035 20.0025682,18.9852997 C20.1849117,19.2830371 20.624077,19.4404125 21.4125201,19.4893265 C21.8876404,19.5191003 23.6545746,19.49996 23.8959872,19.4616795 Z M15.9242376,19.4382858 C17.1698234,19.3319511 17.4651685,19.1937159 17.6346709,18.6386484 C17.7707865,18.194169 17.8401284,17.2988303 17.7553772,17.0585137 C17.7014446,16.9075183 17.5499197,16.78417 17.3547352,16.7331293 C17.1390048,16.6799619 16.1040128,16.6778352 15.8600321,16.7331293 C15.3078652,16.854351 15.1357945,17.0989209 14.7890851,18.2558432 C14.5630819,19.0086934 14.5425361,19.2405032 14.6837881,19.3638515 C14.7248796,19.4000053 14.7942215,19.4382858 14.8378812,19.4467926 C14.9611557,19.478693 15.5158909,19.472313 15.9242376,19.4382858 Z M22.352488,8.94729758 C22.9688604,8.84946959 23.5133226,8.69422083 23.8728732,8.51345172 C24.1117175,8.39435678 24.4789727,8.09236604 24.5688604,7.94137067 C24.7126806,7.69254731 24.6792937,7.52453838 24.4147673,7.17150695 C23.9627608,6.57177885 23.4773676,6.17408682 22.9560193,5.97630415 C22.3550562,5.74662105 21.7540931,5.78702826 21.2969502,6.0911457 C20.6985554,6.48458434 20.4109149,7.13109973 20.3544141,8.18806733 C20.3364366,8.55811233 20.364687,8.68996744 20.4905297,8.81118908 C20.647191,8.96431114 20.9091493,9.00684505 21.6051364,8.99621157 C21.9441413,8.99195818 22.1573034,8.97707131 22.352488,8.94729758 Z M17.6166934,8.80693568 C17.9890851,8.63892675 18.3486356,8.12426647 18.705618,7.25232137 C19.1833066,6.07625883 19.0831461,5.18517347 18.4513644,4.98526411 C18.0892456,4.87254925 17.5987159,5.02567132 17.1107544,5.4042231 C16.8744783,5.58924559 16.6202247,5.84870243 16.3942215,6.13155291 C16.2041734,6.37399618 15.8523274,6.94820393 15.682825,7.29485528 C15.564687,7.53517185 15.5569823,7.5606922 15.5569823,7.74146131 C15.5569823,7.96689101 15.6032103,8.06046561 15.7932584,8.21146098 C16.0911717,8.45177756 16.717817,8.77928864 17.0080257,8.8473429 C17.2160514,8.89413019 17.4574639,8.87924333 17.6166934,8.80693568 Z" id="形状" fill-rule="nonzero"></path>
                </g>
            </g>
        </g>
    </g>
</svg>